Coordinates
version=1
nRows=14
nColumns=46
inDegrees=yes

Units are S.I. units (second, meters, Newtons, ...)
Angles are in degrees.

endheader
time	pelvis_tilt	pelvis_list	pelvis_rotation	pelvis_tx	pelvis_ty	pelvis_tz	bb_angle	bb_tx	bb_ty	bb_tz	hip_flexion_r	hip_adduction_r	hip_rotation_r	knee_angle_r	knee_angle_r_beta	ankle_angle_r	subtalar_angle_r	mtp_angle_r	crank_angle_r	hip_flexion_l	hip_adduction_l	hip_rotation_l	knee_angle_l	knee_angle_l_beta	ankle_angle_l	subtalar_angle_l	mtp_angle_l	crank_angle_l	lumbar_extension	lumbar_bending	lumbar_rotation	arm_flex_r	arm_add_r	arm_rot_r	elbow_flex_r	pro_sup_r	wrist_flex_r	wrist_dev_r	arm_flex_l	arm_add_l	arm_rot_l	elbow_flex_l	pro_sup_l	wrist_flex_l	wrist_dev_l
      0.00500000	    -35.52754317	      1.59001158	     -3.91497543	      0.06507528	      0.98187101	     -0.20384058	      0.00000000	      0.50000000	      0.00000000	      0.25000000	    106.75498658	    -11.54441943	     -7.28299160	     83.98686430	      1.46584731	      2.41895333	      1.33551084	      0.00000000	      0.00000000	     74.33291397	    -13.62258063	     -5.83360316	     73.07003935	      1.27531277	     -9.62304060	     -4.79814736	      0.00000000	      0.00000000	    -28.14193108	      0.99270452	      2.21772886	     89.60547754	     -1.09129708	     46.46358077	     21.83624223	     29.05922327	      0.00000000	      0.00000000	     89.51365969	     -7.51016869	     50.20360173	     23.49365820	     29.58206876	      0.00000000	      0.00000000
      0.01000000	    -35.55645800	      1.62834613	     -3.96124800	      0.06509456	      0.98178022	     -0.20374413	      0.00000000	      0.50000000	      0.00000000	      0.25000000	    106.79978421	    -11.47533029	     -7.23939842	     83.97443732	      1.46563042	      2.35778742	      1.34594864	      0.00000000	      0.00000000	     74.35360969	    -13.68869892	     -5.90646982	     73.08710065	      1.27561055	     -9.57868248	     -4.64646564	      0.00000000	      0.00000000	    -28.09559677	      0.93639959	      2.27896843	     89.60485081	     -1.27146456	     46.93635972	     22.16245532	     28.06364201	      0.00000000	      0.00000000	     89.52778988	     -7.57720771	     51.17520488	     23.43713656	     28.91418889	      0.00000000	      0.00000000
      0.01500000	    -35.53780936	      1.63504607	     -3.95592794	      0.06512079	      0.98183329	     -0.20367589	      0.00000000	      0.50000000	      0.00000000	      0.25000000	    106.77401109	    -11.45948327	     -7.21521534	     83.96434558	      1.46545428	      2.35482591	      1.37007830	      0.00000000	      0.00000000	     74.32710739	    -13.70206513	     -5.92895385	     73.07770108	      1.27544649	     -9.57420616	     -4.58405757	      0.00000000	      0.00000000	    -28.12344546	      0.92156684	      2.26788352	     89.60610422	     -1.28838702	     47.08523509	     22.47680193	     26.48063500	      0.00000000	      0.00000000	     89.52288379	     -7.65274527	     51.12621708	     23.91881189	     27.38374336	      0.00000000	      0.00000000
      0.02000000	    -35.51499932	      1.62307726	     -3.90774164	      0.06513107	      0.98188096	     -0.20385502	      0.00000000	      0.50000000	      0.00000000	      0.25000000	    106.74243325	    -11.50868773	     -7.19640544	     83.99153369	      1.46592881	      2.48563238	      1.32555438	      0.00000000	      0.00000000	     74.31313982	    -13.63115419	     -5.90385306	     73.07116208	      1.27533237	     -9.63052450	     -4.68796293	      0.00000000	      0.00000000	    -28.12295862	      0.95764326	      2.20445556	     89.61140662	     -1.31173954	     47.35239367	     21.92162231	     29.05441706	      0.00000000	      0.00000000	     89.52779790	     -7.72785798	     51.31188207	     23.41841904	     30.07468583	      0.00000000	      0.00000000
      0.02500000	    -35.54301367	      1.56718096	     -3.91533261	      0.06497407	      0.98140325	     -0.20387912	      0.00000000	      0.50000000	      0.00000000	      0.25000000	    106.79408573	    -11.46103164	     -7.16300057	     84.03358058	      1.46666266	      2.59100010	      1.39499654	      0.00000000	      0.00000000	     74.33692609	    -13.62945883	     -5.82049373	     73.02739303	      1.27456845	     -9.74305340	     -4.61125481	      0.00000000	      0.00000000	    -28.08992757	      1.01432592	      2.26065749	     89.61393106	     -1.32486089	     47.74475629	     21.58669446	     29.39419184	      0.00000000	      0.00000000	     89.52506901	     -7.56757991	     50.95034178	     23.19927876	     30.59084824	      0.00000000	      0.00000000
      0.03000000	    -35.55718043	      1.57133569	     -3.91814685	      0.06489637	      0.98135717	     -0.20390607	      0.00000000	      0.50000000	      0.00000000	      0.25000000	    106.81013029	    -11.45644493	     -7.16231271	     84.03773075	      1.46673510	      2.63503734	      1.40295118	      0.00000000	      0.00000000	     74.34317341	    -13.61692829	     -5.81788158	     72.99534542	      1.27400912	     -9.82640334	     -4.58807483	      0.00000000	      0.00000000	    -28.06912079	      1.00272866	      2.24337956	     89.61368880	     -1.34139353	     47.94084136	     21.43592972	     30.26990525	      0.00000000	      0.00000000	     89.52444081	     -7.61699321	     50.86439073	     23.06478823	     31.61587811	      0.00000000	      0.00000000
      0.03500000	    -35.55945543	      1.56518734	     -3.91910733	      0.06488165	      0.98127764	     -0.20393953	      0.00000000	      0.50000000	      0.00000000	      0.25000000	    106.81849337	    -11.44983637	     -7.16431603	     84.05827753	      1.46709371	      2.68208882	      1.36740532	      0.00000000	      0.00000000	     74.35486198	    -13.61997697	     -5.81596258	     73.00853289	      1.27423928	     -9.82347515	     -4.57914877	      0.00000000	      0.00000000	    -28.05574828	      0.99999159	      2.24090379	     89.61433995	     -1.35112679	     48.09991167	     21.26850879	     31.06702021	      0.00000000	      0.00000000	     89.52127578	     -7.68328380	     50.85480315	     23.06298937	     32.63776669	      0.00000000	      0.00000000
      0.04000000	    -35.54417443	      1.65540927	     -3.91800466	      0.06485638	      0.98141830	     -0.20392402	      0.00000000	      0.50000000	      0.00000000	      0.25000000	    106.82951393	    -11.42179290	     -7.07647097	     84.04636942	      1.46688587	      2.64765547	      1.27056005	      0.00000000	      0.00000000	     74.28657658	    -13.57000882	     -5.93807017	     72.92117723	      1.27271464	    -10.05744543	     -4.87662486	      0.00000000	      0.00000000	    -28.12750533	      0.89409732	      2.11070173	     89.61001012	     -0.35840344	     44.37346072	     20.80999570	     30.23076780	      0.00000000	      0.00000000	     89.48989939	     -6.90168257	     46.64772619	     22.90659275	     31.73611479	      0.00000000	      0.00000000
      0.04500000	    -35.49103700	      1.56523914	     -3.87884866	      0.06492950	      0.98142960	     -0.20400998	      0.00000000	      0.50000000	      0.00000000	      0.25000000	    106.75560470	    -11.50163236	     -7.15690094	     84.08471709	      1.46755516	      2.67678182	      1.35399808	      0.00000000	      0.00000000	     74.26336927	    -13.57592818	     -5.83058349	     72.94208100	      1.27307948	     -9.92851923	     -4.61454945	      0.00000000	      0.00000000	    -28.16723369	      1.01450330	      2.19891227	     89.61169131	     -0.58498357	     44.83131706	     20.84707169	     30.60581280	      0.00000000	      0.00000000	     89.50406435	     -6.88522671	     47.51573094	     22.52270514	     32.10406968	      0.00000000	      0.00000000
      0.05000000	    -35.53365493	      1.55067091	     -3.88866036	      0.06491820	      0.98129508	     -0.20391863	      0.00000000	      0.50000000	      0.00000000	      0.25000000	    106.80923894	    -11.46580967	     -7.13991220	     84.09161005	      1.46767547	      2.70805488	      1.37653735	      0.00000000	      0.00000000	     74.32478075	    -13.61910503	     -5.81971125	     72.97225389	      1.27360609	     -9.88876252	     -4.47953195	      0.00000000	      0.00000000	    -28.09608454	      1.00840539	      2.19642492	     89.61392414	     -1.30477715	     48.03972627	     21.53252153	     29.38968676	      0.00000000	      0.00000000	     89.52080243	     -7.71013112	     50.88856719	     23.33634691	     31.07352976	      0.00000000	      0.00000000
      0.05500000	    -35.54171339	      1.56288943	     -3.88808728	      0.06495295	      0.98127179	     -0.20386896	      0.00000000	      0.50000000	      0.00000000	      0.25000000	    106.83833386	    -11.46768357	     -7.12245032	     84.10227825	      1.46786166	      2.59091029	      1.41377568	      0.00000000	      0.00000000	     74.32725063	    -13.63105794	     -5.84223527	     72.95741249	      1.27334706	     -9.96535164	     -4.46875896	      0.00000000	      0.00000000	    -28.08756083	      0.98443143	      2.19016160	     89.61013648	     -1.34445730	     48.30970453	     21.85399399	     27.67169678	      0.00000000	      0.00000000	     89.51729617	     -7.76785579	     51.09234405	     23.74790670	     29.31550946	      0.00000000	      0.00000000
      0.06000000	    -35.49532129	      1.53217094	     -3.86671741	      0.06501023	      0.98135544	     -0.20386706	      0.00000000	      0.50000000	      0.00000000	      0.25000000	    106.78522462	    -11.48146471	     -7.13727198	     84.12197998	      1.46820552	      2.70338956	      1.31367450	      0.00000000	      0.00000000	     74.27768923	    -13.62514820	     -5.81853806	     72.94215846	      1.27308083	     -9.94906304	     -4.41909321	      0.00000000	      0.00000000	    -28.14519260	      1.00742199	      2.17455069	     89.61325176	     -1.34499451	     48.32564428	     21.92810311	     27.23491224	      0.00000000	      0.00000000	     89.51602857	     -7.75312834	     51.04338318	     23.88465708	     28.68081283	      0.00000000	      0.00000000
      0.06500000	    -35.50584588	      1.55216901	     -3.90294016	      0.06500402	      0.98131383	     -0.20379100	      0.00000000	      0.50000000	      0.00000000	      0.25000000	    106.81310331	    -11.42832696	     -7.11555577	     84.12842262	      1.46831797	      2.68983541	      1.30411614	      0.00000000	      0.00000000	     74.28153139	    -13.66943234	     -5.87017735	     72.94650378	      1.27315667	     -9.95357111	     -4.48259931	      0.00000000	      0.00000000	    -28.14245459	      0.96201915	      2.24952919	     89.60728461	     -1.25892160	     47.40983443	     21.90710065	     27.63733221	      0.00000000	      0.00000000	     89.51829767	     -7.54894983	     50.60961782	     23.62615178	     28.97167688	      0.00000000	      0.00000000
      0.07000000	    -35.48754673	      1.53430643	     -3.85144075	      0.06500822	      0.98131690	     -0.20389278	      0.00000000	      0.50000000	      0.00000000	      0.25000000	    106.81048000	    -11.49278190	     -7.11615565	     84.15957625	      1.46886170	      2.69930720	      1.30345293	      0.00000000	      0.00000000	     74.27137727	    -13.61912287	     -5.83552003	     72.93263133	      1.27291455	     -9.96303681	     -4.43635466	      0.00000000	      0.00000000	    -28.15685311	      0.99460121	      2.16092190	     89.61357084	     -1.35529229	     48.24596101	     21.80151586	     28.03233770	      0.00000000	      0.00000000	     89.51505147	     -7.78962132	     50.96550376	     23.86941870	     29.38248077	      0.00000000	      0.00000000
